<svg width="80" height="80" viewBox="0 0 80 80" fill="none" xmlns="http://www.w3.org/2000/svg">
<circle cx="40" cy="40" r="40" fill="#F74F09"/>
<path d="M54.5 36.25V27.5C54.5 26.837 54.2366 26.2011 53.7678 25.7322C53.2989 25.2634 52.663 25 52 25H22C21.337 25 20.7011 25.2634 20.2322 25.7322C19.7634 26.2011 19.5 26.837 19.5 27.5V52.5C19.5 53.163 19.7634 53.7989 20.2322 54.2678C20.7011 54.7366 21.337 55 22 55H52C52.663 55 53.2989 54.7366 53.7678 54.2678C54.2366 53.7989 54.5 53.163 54.5 52.5V43.75L64.5 53.75V26.25L54.5 36.25Z" fill="white"/>
</svg>
